<svg xmlns="http://www.w3.org/2000/svg" xmlns:xlink="http://www.w3.org/1999/xlink" width="375.137" height="276.824" viewBox="0 0 375.137 276.824">
  <defs>
    <linearGradient id="linear-gradient" x1="0.5" y1="1" x2="0.5" gradientUnits="objectBoundingBox">
      <stop offset="0" stop-color="gray" stop-opacity="0.251"/>
      <stop offset="0.54" stop-color="gray" stop-opacity="0.122"/>
      <stop offset="1" stop-color="gray" stop-opacity="0.102"/>
    </linearGradient>
  </defs>
  <g id="background" transform="translate(0 -0.008)">
    <path id="Path_1" data-name="Path 1" d="M317.01,107.362c-23.737-.766-46.347-7.878-67.935-15.66S206.106,75.3,182.938,71.175c-14.9-2.652-31.945-3.026-43.949,4.388-11.557,7.149-15.29,19.455-17.3,30.887-1.511,8.6-2.4,17.648,1.742,25.7,2.872,5.59,7.973,10.288,11.5,15.66,12.275,18.628,3.6,41.6-9.7,59.789-6.235,8.535-13.478,16.681-18.29,25.757s-7.042,19.49-2.831,28.756c4.177,9.192,14.128,16.082,24.9,20.933,21.892,9.855,47.679,12.674,72.842,14.271,55.685,3.537,111.664,2.005,167.5.473,20.663-.568,41.414-1.144,61.74-4.109,11.289-1.648,22.941-4.259,31.138-10.57,10.4-8.01,12.98-21.576,6.011-31.619-11.7-16.848-44.011-21.032-52.2-39.115-4.5-9.951.125-21.035,6.66-30.267,14.025-19.8,37.53-37.171,38.77-59.8.851-15.547-10.453-31.112-27.925-38.468-18.312-7.738-43.714-6.758-57.218,6.005C362.415,102.991,337.967,108.036,317.01,107.362Z" transform="translate(-97.006 -60.576)" fill="#6c63ff" opacity="0.1"/>
    <path id="Path_2" data-name="Path 2" d="M197.168,497.628l-125.534-.569L59.16,469.9l44.106-2.972-7.687-29.774,87.237-10.5L99.28,399.707l7.379-1.627,134.326,20.341-7.4,46.465-10.574,25.536Z" transform="translate(-37.463 -262.557)" fill="#6c63ff"/>
    <path id="Path_3" data-name="Path 3" d="M187,698.625s7.7-1.144,12.323,3.908c0,0-3.389,2.478-10.68-.953Z" transform="translate(-150.904 -475.496)" fill="#6c63ff"/>
    <path id="Path_4" data-name="Path 4" d="M179.337,698.51s-4.915,5.614-2.494,11.864c0,0,4.005-1.488,4.441-9.066Z" transform="translate(-144.047 -475.494)" fill="#6c63ff"/>
    <path id="Path_5" data-name="Path 5" d="M172.76,667.882s3.081-5.246,15.4,2.1c0,0-1.643,3.527-7.086,3.241S174.2,670.647,172.76,667.882Z" transform="translate(-141.886 -454.095)" fill="#6c63ff"/>
    <path id="Path_6" data-name="Path 6" d="M158.482,670.279s-6.393-.681-7.012,12.9c0,0,4.053.78,6.932-3.517S160.1,672.958,158.482,670.279Z" transform="translate(-128.405 -456.87)" fill="#6c63ff"/>
    <path id="Path_7" data-name="Path 7" d="M160.44,628.713s3.594-9.246,16.636-2.669c0,0-2.978,8.483-15.3,5.814Z" transform="translate(-134.085 -426.139)" fill="#6c63ff"/>
    <path id="Path_8" data-name="Path 8" d="M149.52,589.411s6.778-9.341,18.793-.681c0,0-4.21,8.769-17.766,4Z" transform="translate(-127.17 -400.658)" fill="#6c63ff"/>
    <path id="Path_9" data-name="Path 9" d="M145.6,551.83s7.907-8.582,19.805,0c0,0-7.5,7.53-19.805,2.192Z" transform="translate(-124.687 -376.232)" fill="#6c63ff"/>
    <path id="Path_10" data-name="Path 10" d="M142.24,513.693s8.01-8.96,19.409-.477c0,0-9.037,7.912-19.409,2.574Z" transform="translate(-122.56 -350.872)" fill="#6c63ff"/>
    <path id="Path_11" data-name="Path 11" d="M144.2,475.9s8.435-11.534,19.1-3.717c0,0-9.037,9.913-19.1,5.91Z" transform="translate(-123.801 -324.425)" fill="#6c63ff"/>
    <path id="Path_12" data-name="Path 12" d="M149.52,437.869s8.934-11.438,19.306-2.669c0,0-10.577,9.913-19.306,4.766Z" transform="translate(-127.17 -299.64)" fill="#6c63ff"/>
    <path id="Path_13" data-name="Path 13" d="M156.842,400.175s10.577-10.751,19.805-6.468c0,0-11.021,11.418-20.267,9.321Z" transform="translate(-131.514 -273.79)" fill="#6c63ff"/>
    <path id="Path_14" data-name="Path 14" d="M166.226,362.947s12.206-13.168,19.306-8.769c0,0-8.993,10.213-20.172,11.234Z" transform="translate(-137.2 -247.789)" fill="#6c63ff"/>
    <path id="Path_15" data-name="Path 15" d="M179.794,326.947s10.684-10.751,18.488-8.082c0,0-9.14,11.152-19.922,11.438Z" transform="translate(-145.432 -224.81)" fill="#6c63ff"/>
    <path id="Path_16" data-name="Path 16" d="M194.553,290.8s11.81-10.295,16.944-8.483c0,0-8.523,11.438-17.458,10.771Z" transform="translate(-155.362 -200.843)" fill="#6c63ff"/>
    <path id="Path_17" data-name="Path 17" d="M208.32,252.524s10.167-12.3,15.716-11.346c0,0-6.165,10.965-15.716,12.6Z" transform="translate(-164.404 -173.816)" fill="#6c63ff"/>
    <path id="Path_18" data-name="Path 18" d="M221.66,211.836s8.986-9.426,13.842-9.406c0,0-7.093,12.6-14.212,12.48Z" transform="translate(-172.617 -148.293)" fill="#6c63ff"/>
    <path id="Path_19" data-name="Path 19" d="M228.674,162.356l8.681-19.636s.433,17.75-9.785,23.278Z" transform="translate(-176.594 -108.91)" fill="#6c63ff"/>
    <path id="Path_20" data-name="Path 20" d="M240.089,102.433s1.438-16.4.513-17.733c0,0,6.206,13.634-.572,24.977Z" transform="translate(-184.484 -70.642)" fill="#6c63ff"/>
    <path id="Path_21" data-name="Path 21" d="M133.918,635.79s-9-5.178-14.828,7.489c0,0,8.01,4.936,15.888-4.259Z" transform="translate(-107.9 -433.435)" fill="#6c63ff"/>
    <path id="Path_22" data-name="Path 22" d="M120.424,594.757s-11.039-4.674-16.394,8.552c0,0,8.527,5.447,17.4-5.208Z" transform="translate(-98.364 -406.533)" fill="#6c63ff"/>
    <path id="Path_23" data-name="Path 23" d="M110,554.14s-7.907-8.582-19.8,0c0,0,7.5,7.53,19.8,2.192Z" transform="translate(-89.606 -377.756)" fill="#6c63ff"/>
    <path id="Path_24" data-name="Path 24" d="M107.989,513.693s-8.01-8.96-19.409-.477c0,0,9.037,7.912,19.409,2.574Z" transform="translate(-88.58 -350.872)" fill="#6c63ff"/>
    <path id="Path_25" data-name="Path 25" d="M113.412,472.375s-5.619-12.919-17.832-7.363c0,0,6.6,11.455,17.333,9.508Z" transform="translate(-93.013 -320.569)" fill="#6c63ff"/>
    <path id="Path_26" data-name="Path 26" d="M120.421,432.477s-5.586-13.144-17.971-7.05c0,0,7.585,12.048,17.421,9.079Z" transform="translate(-97.363 -294.312)" fill="#6c63ff"/>
    <path id="Path_27" data-name="Path 27" d="M139.36,384.431s-2.2-14.41-12.47-15.7c0,0,2.179,15.2,11.087,18.3Z" transform="translate(-112.839 -257.98)" fill="#6c63ff"/>
    <path id="Path_28" data-name="Path 28" d="M152.289,346.948s-.858-17.362-9.349-17.968c0,0,.286,13.178,8.391,20.426Z" transform="translate(-123.003 -231.762)" fill="#6c63ff"/>
    <path id="Path_29" data-name="Path 29" d="M166.306,310.611s-2.531-14.438-10.636-16.2c0,0,1,13.981,9.833,19.745Z" transform="translate(-131.064 -208.961)" fill="#6c63ff"/>
    <path id="Path_30" data-name="Path 30" d="M188.148,274.579s-.084-15.04-5.036-17.249c0,0-3.07,13.617,3.6,19.169Z" transform="translate(-147.995 -184.504)" fill="#6c63ff"/>
    <path id="Path_31" data-name="Path 31" d="M198.951,239.878s-.693-15.486-5.82-17.668c0,0-1.753,12.255,5.054,18.683Z" transform="translate(-154.657 -161.34)" fill="#6c63ff"/>
    <path id="Path_32" data-name="Path 32" d="M215.815,203.561s-.029-12.6-3.69-15.551c0,0-3.638,13.8,1.779,18.084Z" transform="translate(-166.057 -138.783)" fill="#6c63ff"/>
    <path id="Path_33" data-name="Path 33" d="M220.912,157.964,217.351,137s-4.838,17.178,3.73,24.749Z" transform="translate(-169.261 -105.138)" fill="#6c63ff"/>
    <path id="Path_34" data-name="Path 34" d="M215.838,107.03s-9.14-14.094-8.953-15.66c0,0,.972,14.771,12.47,22.128Z" transform="translate(-163.494 -75.041)" fill="#6c63ff"/>
    <path id="Path_35" data-name="Path 35" d="M212.589,83.218S203.962,63.2,200.06,61.58a25.422,25.422,0,0,1,13.247,21.066Z" transform="translate(-159.174 -55.393)" fill="#6c63ff"/>
    <path id="Path_36" data-name="Path 36" d="M220.15,161.571l-.59-.167c7.28-22.036,9.1-36.085,5.116-39.609l.422-.415C229.319,125.1,227.607,138.994,220.15,161.571Z" transform="translate(-171.522 -94.835)" fill="#444053"/>
    <path id="Path_37" data-name="Path 37" d="M165,287.916l-.873-.289c.774-2.019,1.606-4.068,2.479-6.087,7.6-17.58,14.069-33.934,18.217-46.489l.759-.34c-4.155,12.579-10.511,29.559-18.118,47.163C166.6,283.854,165.769,285.893,165,287.916Z" transform="translate(-136.421 -169.584)" fill="#444053"/>
    <path id="Path_38" data-name="Path 38" d="M167.992,508.581c-.117-.119-11.916-12.453-20.142-33.508a116.172,116.172,0,0,1-7.948-38.394c-.565-16.385,3.139-34.679,9.484-51.3l.69.749c-14.245,37.3-8.586,69.264-1.078,88.511,8.138,20.865,19.8,33.062,19.919,33.185Z" transform="translate(-121.044 -268.962)" fill="#444053"/>
    <path id="Path_39" data-name="Path 39" d="M585.671,670.36s-8.314,9.42-1.713,23.66l-66.383,26.724-6.371,1.239-2.934-11.915,1.962-15.037v-8.218Z" transform="translate(-354.345 -456.927)" fill="#d5d6db"/>
    <path id="Path_40" data-name="Path 40" d="M59.16,578.937l91.881-15.547,121.746,18-75.618,25.27Z" transform="translate(-37.463 -371.591)" fill="#6c63ff"/>
    <path id="Path_41" data-name="Path 41" d="M59.16,578.937l91.881-15.547,121.746,18-75.618,25.27Z" transform="translate(-37.463 -371.591)" fill="#6c63ff"/>
    <path id="Path_42" data-name="Path 42" d="M141.768,652.47s-8.593,15.112,1.309,29.069l136.251,27.4s-8.457-12.038.436-28.746Z" transform="translate(-120.07 -445.127)" fill="#6c63ff"/>
    <path id="Path_43" data-name="Path 43" d="M141.768,652.47s-8.593,15.112,1.309,29.069l136.251,27.4s-8.457-12.038.436-28.746Z" transform="translate(-120.07 -445.127)" opacity="0.1"/>
    <path id="Path_44" data-name="Path 44" d="M155.042,667.86s-4.911,11.057,0,18.213" transform="translate(-129.284 -455.278)" opacity="0.1"/>
    <path id="Path_45" data-name="Path 45" d="M287.561,759.988l76.066-30.128s4.254.851,1.5,3.745-76.1,29.277-76.1,29.277l-137.718-30.3Z" transform="translate(-128.303 -496.171)" fill="#6c63ff"/>
    <path id="Path_46" data-name="Path 46" d="M287.561,759.988l76.066-30.128s4.254.851,1.5,3.745-76.1,29.277-76.1,29.277l-137.718-30.3Z" transform="translate(-128.303 -496.171)" opacity="0.1"/>
    <path id="Path_47" data-name="Path 47" d="M500.181,742.86s-7.335,8.17,0,20.426" transform="translate(-347.158 -504.746)" opacity="0.1"/>
    <path id="Path_347" data-name="Path 347" d="M0,0,34.435.748l.008.343L.008.343Z" transform="translate(155.634 248.164) rotate(-18.45)" opacity="0.1"/>
    <path id="Path_348" data-name="Path 348" d="M0,0,41.878,1.008l.009.344L.009.344Z" transform="translate(155.622 250.905) rotate(-20.82)" opacity="0.1"/>
    <path id="Path_349" data-name="Path 349" d="M0,0,48.48,1.233l.009.344L.009.344Z" transform="translate(155.843 254.136) rotate(-22.26)" opacity="0.1"/>
    <path id="Path_350" data-name="Path 350" d="M0,0,55.7,1.519l.01.345L.01.345Z" transform="translate(156.372 256.985) rotate(-24.31)" opacity="0.1"/>
    <path id="Path_351" data-name="Path 351" d="M0,0,60.96,1.625l.01.345L.01.345Z" transform="matrix(0.916, -0.401, 0.401, 0.916, 156.779, 258.371)" opacity="0.1"/>
    <path id="Path_352" data-name="Path 352" d="M0,0,72.966,1.929l.01.345L.01.345Z" transform="translate(157.632 260.699) rotate(-23.36)" opacity="0.1"/>
    <path id="Path_48" data-name="Path 48" d="M152.23,589.536l64.55-12.6,39.324,6.979-52.894,15.83Z" transform="translate(-96.398 -380.528)" fill="#fff" opacity="0.3"/>
    <path id="Path_49" data-name="Path 49" d="M599.63,659.69s3.337,1.249,1.379,3.18S524,684.96,524,684.96Z" transform="translate(-364.306 -449.889)" fill="#6c63ff"/>
    <path id="Path_50" data-name="Path 50" d="M684.967,574.18s-8.311,9.416-1.709,23.66l-66.383,26.724-6.371,1.246-2.934-11.915,1.992-15.033v-8.228Z" transform="translate(-417.226 -393.489)" fill="#d5d6db"/>
    <path id="Path_51" data-name="Path 51" d="M158.46,482.754l91.877-15.544,121.749,18-75.618,25.27Z" transform="translate(-100.343 -308.153)" fill="#3a3768"/>
    <path id="Path_52" data-name="Path 52" d="M241.023,556.29s-8.6,15.112,1.306,29.069l136.251,27.4s-8.454-12.048.451-28.749Z" transform="translate(-182.921 -381.689)" fill="#3a3768"/>
    <path id="Path_53" data-name="Path 53" d="M241.023,556.29s-8.6,15.112,1.306,29.069l136.251,27.4s-8.454-12.048.451-28.749l-43.087-8.657Z" transform="translate(-182.921 -381.689)" opacity="0.1"/>
    <path id="Path_54" data-name="Path 54" d="M254.334,571.68s-4.907,11.054,0,18.213" transform="translate(-192.161 -391.84)" opacity="0.1"/>
    <path id="Path_55" data-name="Path 55" d="M386.851,663.808l76.07-30.128s4.251.851,1.5,3.745-76.1,29.277-76.1,29.277L250.6,636.4Z" transform="translate(-191.178 -432.734)" fill="#3a3768"/>
    <path id="Path_56" data-name="Path 56" d="M386.851,663.808l76.07-30.128s4.251.851,1.5,3.745-76.1,29.277-76.1,29.277L250.6,636.4Z" transform="translate(-191.178 -432.734)" opacity="0.1"/>
    <path id="Path_57" data-name="Path 57" d="M599.471,646.68s-7.335,8.17,0,20.426" transform="translate(-410.033 -441.308)" opacity="0.1"/>
    <path id="Path_353" data-name="Path 353" d="M0,0,34.435.748l.008.343L.008.343Z" transform="translate(192.053 215.425) rotate(-18.45)" opacity="0.1"/>
    <path id="Path_354" data-name="Path 354" d="M0,0,41.878,1.008l.009.344L.009.344Z" transform="translate(192.045 218.165) rotate(-20.82)" opacity="0.1"/>
    <path id="Path_355" data-name="Path 355" d="M0,0,48.48,1.233l.009.344L.009.344Z" transform="translate(192.26 221.391) rotate(-22.26)" opacity="0.1"/>
    <path id="Path_356" data-name="Path 356" d="M0,0,55.7,1.519l.01.345L.01.345Z" transform="translate(192.793 224.24) rotate(-24.31)" opacity="0.1"/>
    <path id="Path_357" data-name="Path 357" d="M0,0,60.96,1.625l.01.345L.01.345Z" transform="matrix(0.916, -0.401, 0.401, 0.916, 193.196, 225.622)" opacity="0.1"/>
    <path id="Path_358" data-name="Path 358" d="M0,0,72.966,1.929l.01.345L.01.345Z" transform="translate(194.051 227.95) rotate(-23.36)" opacity="0.1"/>
    <path id="Path_58" data-name="Path 58" d="M251.53,493.356l64.55-12.6,39.324,6.979-52.894,15.83Z" transform="translate(-159.279 -317.091)" fill="#fff" opacity="0.45"/>
    <path id="Path_59" data-name="Path 59" d="M698.949,563.51s3.334,1.249,1.379,3.176-77,22.09-77,22.09Z" transform="translate(-427.206 -386.452)" fill="#3a3768"/>
    <path id="Path_60" data-name="Path 60" d="M694.386,464.15s-8.314,16.909-1.713,31.149L626.29,514.533l-6.356,1.249L617,503.868l1.962-15.037V480.6Z" transform="translate(-423.197 -320.917)" fill="#d5d6db"/>
    <path id="Path_61" data-name="Path 61" d="M167.89,372.727l91.881-15.547,121.749,18L305.9,400.452Z" transform="translate(-106.315 -235.581)" fill="#6c63ff"/>
    <path id="Path_62" data-name="Path 62" d="M250.48,446.26s-8.608,15.112,1.295,29.069l136.251,27.4s-8.457-12.048.447-28.746Z" transform="translate(-188.905 -309.117)" fill="#6c63ff"/>
    <path id="Path_63" data-name="Path 63" d="M250.48,446.26s-8.608,15.112,1.295,29.069l136.251,27.4s-8.457-12.048.447-28.746Z" transform="translate(-188.905 -309.117)" opacity="0.1"/>
    <path id="Path_64" data-name="Path 64" d="M263.772,461.65s-4.911,11.057,0,18.213" transform="translate(-198.136 -319.268)" opacity="0.1"/>
    <path id="Path_65" data-name="Path 65" d="M396.291,559.055l76.066-22.639s4.254.851,1.5,3.745-76.1,21.787-76.1,21.787L260.04,531.65Z" transform="translate(-197.155 -365.438)" fill="#6c63ff"/>
    <path id="Path_66" data-name="Path 66" d="M396.291,559.055l76.066-22.639s4.254.851,1.5,3.745-76.1,21.787-76.1,21.787L260.04,531.65Z" transform="translate(-197.155 -365.438)" opacity="0.1"/>
    <path id="Path_67" data-name="Path 67" d="M608.911,536.65s-7.335,8.17,0,20.426" transform="translate(-416.011 -368.736)" opacity="0.1"/>
    <path id="Path_359" data-name="Path 359" d="M0,0,34.435.748l.008.343L.008.343Z" transform="translate(195.516 177.967) rotate(-18.45)" opacity="0.1"/>
    <path id="Path_360" data-name="Path 360" d="M0,0,41.878,1.008l.009.344L.009.344Z" transform="translate(195.506 180.709) rotate(-20.82)" opacity="0.1"/>
    <path id="Path_361" data-name="Path 361" d="M0,0,48.48,1.233l.009.344L.009.344Z" transform="translate(195.718 183.936) rotate(-22.26)" opacity="0.1"/>
    <path id="Path_362" data-name="Path 362" d="M0,0,55.7,1.519l.01.345L.01.345Z" transform="translate(196.256 186.783) rotate(-24.31)" opacity="0.1"/>
    <path id="Path_363" data-name="Path 363" d="M0,0,60.96,1.625l.01.345L.01.345Z" transform="matrix(0.916, -0.401, 0.401, 0.916, 196.66, 188.168)" opacity="0.1"/>
    <path id="Path_364" data-name="Path 364" d="M0,0,72.966,1.929l.01.345L.01.345Z" transform="translate(197.514 190.498) rotate(-23.36)" opacity="0.1"/>
    <path id="Path_68" data-name="Path 68" d="M260.96,383.326l64.55-12.6,39.324,6.979-52.894,15.83Z" transform="translate(-165.25 -244.518)" fill="#fff" opacity="0.3"/>
    <path id="Path_69" data-name="Path 69" d="M708.378,453.48s3.338,1.249,1.379,3.18-77,22.09-77,22.09Z" transform="translate(-433.177 -313.879)" fill="#6c63ff"/>
    <path id="Path_70" data-name="Path 70" d="M377.52,149.888s-13.937-.78-12.308,8.3a2.15,2.15,0,0,0,1.24,2.332s.026-.681,1.43-.446a6.73,6.73,0,0,0,1.518.068,3.3,3.3,0,0,0,1.852-.708h0s3.921-1.5,5.446-7.455c0,0,1.13-1.3,1.1-1.631l-2.362.933a3.675,3.675,0,0,1,.172,2.887s-.077-2.829-.532-2.764c-.092,0-1.221.548-1.221.548s1.383,2.747.337,4.742c0,0,.4-3.384-.77-4.545l-1.658.9s1.617,2.836.521,5.151c0,0,.282-3.551-.869-4.933l-1.5,1.089s1.522,2.795.594,4.715c0,0-.121-4.133-.917-4.446a8.706,8.706,0,0,0-1.515,1.518s1.042,2.043.392,3.1c0,0-.392-2.754-.734-2.768a8.87,8.87,0,0,0-1.445,3.064,6.3,6.3,0,0,1,1.126-3.248,4.04,4.04,0,0,0-2,.963s.2-1.29,2.329-1.4a8.579,8.579,0,0,1,1.372-1.467,9.22,9.22,0,0,0-3.4.361s1.13-1.215,3.781-.681l1.467-1.123a13.622,13.622,0,0,0-3.961.037s1.361-1.076,4.361-.293l1.617-.9a15.792,15.792,0,0,0-3.785-.3,6.224,6.224,0,0,1,4.258.061l1.152-.48s-1.735-.317-2.245-.368-.535-.18-.535-.18a6.49,6.49,0,0,1,3.264.34A15.174,15.174,0,0,0,377.52,149.888Z" transform="translate(-263.671 -113.627)" fill="#6c63ff"/>
    <path id="Path_71" data-name="Path 71" d="M912.12,259.468s-13.937-.78-12.308,8.3a2.15,2.15,0,0,0,1.24,2.332s.026-.681,1.43-.446a6.953,6.953,0,0,0,1.518.068,3.282,3.282,0,0,0,1.834-.708h0s3.924-1.5,5.446-7.455c0,0,1.13-1.3,1.1-1.631l-2.355.933a3.674,3.674,0,0,1,.172,2.887s-.077-2.829-.528-2.764c-.092,0-1.225.548-1.225.548s1.383,2.747.341,4.742c0,0,.4-3.384-.774-4.545l-1.658.9s1.617,2.836.521,5.151c0,0,.282-3.551-.869-4.933l-1.5,1.089s1.518,2.795.591,4.715c0,0-.121-4.133-.917-4.446a8.837,8.837,0,0,0-1.515,1.518s1.042,2.043.4,3.1c0,0-.4-2.754-.734-2.768a8.872,8.872,0,0,0-1.445,3.064,6.284,6.284,0,0,1,1.13-3.248,4.059,4.059,0,0,0-2.006.963s.205-1.29,2.329-1.4a8.706,8.706,0,0,1,1.372-1.471,9.257,9.257,0,0,0-3.4.364s1.13-1.215,3.781-.681l1.467-1.123a13.626,13.626,0,0,0-3.961.037s1.357-1.076,4.361-.293l1.614-.9a15.792,15.792,0,0,0-3.785-.3,6.224,6.224,0,0,1,4.258.061l1.155-.48s-1.738-.317-2.248-.368-.535-.18-.535-.18a6.443,6.443,0,0,1,3.264.34A15.425,15.425,0,0,0,912.12,259.468Z" transform="translate(-602.201 -185.903)" fill="#6c63ff" opacity="0.1"/>
    <path id="Path_72" data-name="Path 72" d="M436.418,300.045s-6.074-11.687-13.8-5.927a2.252,2.252,0,0,0-1.588,2.141s.642-.31,1.1.943a5.87,5.87,0,0,0,.675,1.26,3.136,3.136,0,0,0,1.573,1.157h0s3.327,2.444,9.668.776a6.748,6.748,0,0,0,2.061.085l-2.024-1.454a4.274,4.274,0,0,1-2.633,1.546s2.626-1.44,2.344-1.774c-.059-.068-1.1-.725-1.1-.725s-1.911,2.461-4.295,2.587c0,0,3.374-1.328,3.895-2.843l-1.65-.906s-1.881,2.7-4.592,2.934c0,0,3.477-1.5,4.214-3.108l-1.753-.681s-1.889,2.594-4.148,2.781c0,0,3.829-2.114,3.734-2.914a9.889,9.889,0,0,0-2.168-.487s-1.4,1.835-2.721,1.835c0,0,2.395-1.665,2.248-1.934a10.4,10.4,0,0,0-3.594.34,7.613,7.613,0,0,1,3.605-.681,3.985,3.985,0,0,0-1.885-1.154s1.313-.463,2.454,1.2a9.663,9.663,0,0,1,2.05.395,8.009,8.009,0,0,0-2-2.57,3.663,3.663,0,0,1,2.468,2.723l1.779.654a11.149,11.149,0,0,0-1.966-3.19s1.672.575,2.4,3.4l1.628.872a12.994,12.994,0,0,0-1.559-3.214,5.355,5.355,0,0,1,2.017,3.479l1.016.7s-.55-1.563-.733-2-.092-.524-.092-.524a5.386,5.386,0,0,1,1.276,2.809A13.649,13.649,0,0,0,436.418,300.045Z" transform="translate(-299.096 -207.716)" fill="#6c63ff" opacity="0.1"/>
    <path id="Path_73" data-name="Path 73" d="M820.2,196.425s-6.07-11.687-13.8-5.927a2.256,2.256,0,0,0-1.588,2.141s.646-.306,1.1.943a5.744,5.744,0,0,0,.679,1.263,3.119,3.119,0,0,0,1.57,1.154h0s3.33,2.444,9.668.78a6.781,6.781,0,0,0,2.065.082l-2.013-1.457a4.271,4.271,0,0,1-2.63,1.549s2.622-1.443,2.34-1.777c-.059-.068-1.1-.725-1.1-.725s-1.907,2.461-4.295,2.587c0,0,3.378-1.328,3.9-2.839l-1.676-.9s-1.878,2.693-4.592,2.934c0,0,3.477-1.5,4.218-3.112l-1.757-.681s-1.889,2.6-4.145,2.781c0,0,3.825-2.114,3.73-2.911a9.652,9.652,0,0,0-2.164-.487s-1.4,1.832-2.725,1.832c0,0,2.4-1.665,2.252-1.934a10.419,10.419,0,0,0-3.6.34,7.609,7.609,0,0,1,3.605-.681,3.962,3.962,0,0,0-1.882-1.154s1.313-.463,2.454,1.2a9.7,9.7,0,0,1,2.05.4,7.983,7.983,0,0,0-2-2.574,3.676,3.676,0,0,1,2.468,2.74l1.783.654a11.153,11.153,0,0,0-1.966-3.193s1.673.575,2.4,3.4l1.632.872a13.115,13.115,0,0,0-1.562-3.214A5.338,5.338,0,0,1,816.63,194l1.016.7s-.547-1.563-.734-2-.092-.521-.092-.521a5.4,5.4,0,0,1,1.273,2.809A14.079,14.079,0,0,0,820.2,196.425Z" transform="translate(-542.122 -139.371)" fill="#6c63ff" opacity="0.1"/>
    <path id="Path_74" data-name="Path 74" d="M873.069,366.229s-6.07-11.69-13.816-5.93a2.257,2.257,0,0,0-1.588,2.141s.646-.306,1.1.943a5.738,5.738,0,0,0,.675,1.263,3.118,3.118,0,0,0,1.57,1.154h0s3.33,2.448,9.672.78a6.651,6.651,0,0,0,2.061.082l-2.025-1.454a4.272,4.272,0,0,1-2.633,1.549s2.622-1.443,2.34-1.777c-.059-.068-1.1-.725-1.1-.725s-1.907,2.461-4.295,2.591c0,0,3.378-1.331,3.9-2.843l-1.654-.906s-1.878,2.7-4.592,2.935c0,0,3.477-1.5,4.218-3.112l-1.757-.681s-1.889,2.594-4.145,2.781c0,0,3.829-2.114,3.734-2.914a9.69,9.69,0,0,0-2.168-.487s-1.4,1.831-2.725,1.831c0,0,2.4-1.665,2.252-1.934a10.419,10.419,0,0,0-3.6.34,7.632,7.632,0,0,1,3.609-.681,3.953,3.953,0,0,0-1.885-1.154s1.313-.466,2.454,1.2a9.659,9.659,0,0,1,2.05.395,8.044,8.044,0,0,0-2-2.574,3.677,3.677,0,0,1,2.468,2.741l1.779.654a11.105,11.105,0,0,0-1.966-3.19s1.672.572,2.4,3.4l1.632.868a13.118,13.118,0,0,0-1.563-3.214,5.352,5.352,0,0,1,2.021,3.483l1.016.681s-.55-1.563-.733-2-.092-.521-.092-.521a5.366,5.366,0,0,1,1.273,2.809A14.816,14.816,0,0,0,873.069,366.229Z" transform="translate(-575.595 -251.367)" fill="#6c63ff" opacity="0.1"/>
    <ellipse id="Ellipse_1" data-name="Ellipse 1" cx="8.432" cy="0.875" rx="8.432" ry="0.875" transform="translate(65.635 265.206)" fill="#6c63ff" opacity="0.1"/>
    <ellipse id="Ellipse_2" data-name="Ellipse 2" cx="8.432" cy="0.875" rx="8.432" ry="0.875" transform="translate(10.361 250.336)" fill="#6c63ff" opacity="0.1"/>
    <ellipse id="Ellipse_3" data-name="Ellipse 3" cx="8.432" cy="0.875" rx="8.432" ry="0.875" transform="translate(107.769 275.081)" fill="#6c63ff" opacity="0.1"/>
    <ellipse id="Ellipse_4" data-name="Ellipse 4" cx="8.432" cy="0.875" rx="8.432" ry="0.875" transform="translate(323.68 253.57)" fill="#6c63ff" opacity="0.1"/>
    <ellipse id="Ellipse_5" data-name="Ellipse 5" cx="8.432" cy="0.875" rx="8.432" ry="0.875" transform="translate(253.515 249.325)" fill="#6c63ff" opacity="0.1"/>
    <ellipse id="Ellipse_6" data-name="Ellipse 6" cx="9.972" cy="1.59" rx="9.972" ry="1.59" transform="translate(206.584 268.6)" fill="#6c63ff" opacity="0.1"/>
    <path id="Path_75" data-name="Path 75" d="M676.029,790.14s-13.886,6.659-6.712,14.5a2.665,2.665,0,0,0,2.626,1.583s-.389-.66,1.1-1.188a7.357,7.357,0,0,0,1.5-.739,3.306,3.306,0,0,0,1.342-1.665h0s2.839-3.527.638-10.053c0,0,.286-1.845.037-2.145l-1.687,2.148a4.424,4.424,0,0,1,1.944,2.683s-1.834-2.679-2.2-2.383c-.081.061-.836,1.174-.836,1.174s3.022,1.9,3.246,4.375c0,0-1.7-3.462-3.539-3.956l-1.053,1.743s3.3,1.866,3.668,4.671c0,0-1.918-3.557-3.877-4.276l-.774,1.842s3.184,1.879,3.477,4.215c0,0-2.663-3.9-3.62-3.782a8.863,8.863,0,0,0-.521,2.264s2.248,1.4,2.289,2.768c0,0-2.076-2.434-2.4-2.274a9.564,9.564,0,0,0,.506,3.721,6.94,6.94,0,0,1-.921-3.721,4.055,4.055,0,0,0-1.331,1.988s-.6-1.345,1.372-2.584a8.806,8.806,0,0,1,.414-2.138,9.662,9.662,0,0,0-3.037,2.151s.334-1.767,3.224-2.645l.733-1.865s-2.89,1.137-3.781,2.138c0,0,.642-1.753,4.009-2.594l1-1.7a17.47,17.47,0,0,0-3.822,1.7s.972-1.508,4.13-2.2l.811-1.072s-1.863.616-2.384.837-.624.112-.624.112a7,7,0,0,1,3.341-1.409A15.254,15.254,0,0,0,676.029,790.14Z" transform="translate(-455.023 -535.93)" fill="#6c63ff"/>
    <path id="Path_76" data-name="Path 76" d="M588.762,171.865c-2.4-6.049-15.6-6.618-21.331-5.076-4.071,1.1-12.653,2.339-17.238,2.962l-.3-.262c.594-.163.609-.565.536-1.161a16.861,16.861,0,0,1,.037-2.356,6.591,6.591,0,0,0,5.311-1.106h0c3.3-1.362,2.413-7.19,3.044-8.783.473-1.191.983-8.211,1.21-11.711h.048l.026-1.174c.033-.507.048-.8.048-.8s.323-8.558.953-10.291c.587-1.593,1.064-9.621,1.137-10.894v-.167l-.048-.742c.033-.541.048-1.144.044-1.777,0-2.911-.327-6.577-.367-7.169v-.31c.026-1.243-.143-7.466-5.846-9.818-2.1-.872-4.629-1.91-7.075-2.921-.631-5.055-2.072-10.083-1.948-15.176a21.833,21.833,0,0,1,.154-2.294c0,.221-.026.446-.029.681V83c.216-6.369,2.809-12.773,2.567-19.006-.022.609-.07,1.222-.132,1.835a18.432,18.432,0,0,0-.7-6.26,3.64,3.64,0,0,0-1.152-1.94,4.959,4.959,0,0,0-2.01-.739,43.239,43.239,0,0,0-5.278-.912,7.381,7.381,0,0,0-1.188-2.141c-3.719-4.739-9.228-9.192-15.741-10.213-3.268-.511-7.027-.085-9.25,2.083a6.712,6.712,0,0,0-.653.613c-1.2,1.324-1.709,3.064-2.934,4.385-.081.089-.172.17-.26.255-2.4,1.992-6.136,2.407-8.8,4.194a10.374,10.374,0,0,0-1.317,1.066,21.131,21.131,0,0,0-2.875,3.244,13.138,13.138,0,0,0-2.813,5.066c-.767,3.745,1.98,7.3,2.49,11.064,1.137,8.432-8.916,15.915-7.012,24.235a10.911,10.911,0,0,0,3.235,5.389c-3.921,3.3-7.258,6.492-7.258,6.492v.191h-.62l.062.681h-.062l.341,3.694-.341,5.379v.507h.022c.114,1.971.565,9.059,1.1,10.553.631,1.733.95,10.291.95,10.291s.7,12.1,1.335,13.7-.268,7.411,3.044,8.783h0a7.268,7.268,0,0,0,3.327,1.28c-.169,1.273-.062,2.2.484,2.485a1.692,1.692,0,0,0,.77.2,7.456,7.456,0,0,0-.6.97,16.547,16.547,0,0,1-3.844-.841c-3.558-1.362-15.364-4.426-18.793-2.271s-11.681,4.109-7.871,12.783,5.586,8.892,5.586,8.892a13.121,13.121,0,0,1,3.048,2.843c1.144,1.6,11.806,5.249,14.472,5.249a28.113,28.113,0,0,1,3.392.157s-2.894,2.356-2.509,3.724-.88,12.323-.88,12.323,2.934,2.744,4.188-.855l.044.054c.235.3,1.5,1.634,3.891-.054a22.125,22.125,0,0,1,3.1-1.825l11.56-1.518a35.241,35.241,0,0,1,3.62-.024,7.913,7.913,0,0,0,4.768-1.648c2.395.844,5.087,1.767,6.367,2.1,2.6.681,14.531,3.653,17.322,2.723a3.885,3.885,0,0,0,1.5-.994l2.663.078-1.247.231s2.428.037,5.729.078l-.139.075,4.141-.034c6.059.051,12.866.068,13.761-.119,1.4-.289,8.681-.085,10.827,0h.6s8-1.481,4.7-9.015c-2.538-5.787-10.339-7.469-13.8-7.932.976-.18,1.815-.32,2.373-.4,2.417-.34,7.111-2.383,7.493-3.081s4.317-2.723,5.333-3.877S591.172,177.915,588.762,171.865Zm-66.255,16.929-.392.119-.264.082-.506.463c-.4-.252-.836-.517-1.287-.79C520.853,188.713,521.671,188.757,522.507,188.795Zm34.956,9.593Z" transform="translate(-326.544 -43.42)" fill="url(#linear-gradient)"/>
    <path id="Path_77" data-name="Path 77" d="M686.65,283.655s5.611,13.617,8.8,12.255,2.325-7.149,2.934-8.735,1.284-13.617,1.284-13.617.308-8.511.917-10.233c.565-1.583,1.023-9.566,1.1-10.822v-.167l-.605-9.872-3.426-.793-7.944,2.723-1.1,5.832-.429,2.277-.183.97Z" transform="translate(-467.302 -174.175)" fill="#be6f72"/>
    <path id="Path_78" data-name="Path 78" d="M691.69,358.3s5.355,4.068,6.968,4.426,2.6,3.53,2.6,3.53" transform="translate(-470.494 -251.101)" opacity="0.1"/>
    <path id="Path_79" data-name="Path 79" d="M541.037,285.405s-5.611,13.617-8.8,12.255-2.325-7.149-2.934-8.735-1.284-13.617-1.284-13.617-.308-8.511-.917-10.233c-.565-1.583-1.023-9.566-1.1-10.822v-.167l.609-9.872,3.425-.793,7.944,2.723,1.1,5.832.429,2.277.183.97Z" transform="translate(-365.572 -175.329)" fill="#be6f72"/>
    <rect id="Rectangle_19" data-name="Rectangle 19" width="12.525" height="18.121" transform="translate(199.48 37.204)" fill="#3e373a"/>
    <rect id="Rectangle_20" data-name="Rectangle 20" width="12.525" height="18.121" transform="translate(199.48 37.204)" opacity="0.1"/>
    <path id="Path_80" data-name="Path 80" d="M555.742,404.491s-4.28,4.368-2.692,5.161,11.861,15.66,11.861,15.66,33.742,3.857,40.105-1.93,6.235-16.126,6.235-16.126-5.113,1.021-5.67.466-3.62-3.231-3.62-3.231S558.676,402.054,555.742,404.491Z" transform="translate(-382.478 -280.853)" fill="#4b4b5b"/>
    <path id="Path_81" data-name="Path 81" d="M555.742,404.491s-4.28,4.368-2.692,5.161,11.861,15.66,11.861,15.66,33.742,3.857,40.105-1.93,6.235-16.126,6.235-16.126-5.113,1.021-5.67.466-3.62-3.231-3.62-3.231S558.676,402.054,555.742,404.491Z" transform="translate(-382.478 -280.853)" opacity="0.02"/>
    <path id="Path_82" data-name="Path 82" d="M600.63,183.714l-11,8.17-3.327.225-1.221.082-20.513,1.4-21.272-1.443-3.165-.214-4.034-.272-8.435-7.489a140.25,140.25,0,0,1,11.2-9.944,23.208,23.208,0,0,1,5.428-3.367l.242-.078a6.062,6.062,0,0,0,2.325-1.5c4.13-3.952,7.948-13.706,7.948-13.706s18.217-8.735,16.016,2.723,8.19,8.626,8.19,8.626l3.426,1.45,1.353.575,3.451,1.467,7.786,3.316C601.137,176.337,600.63,183.714,600.63,183.714Z" transform="translate(-366.623 -115.283)" fill="#be6f72"/>
    <ellipse id="Ellipse_7" data-name="Ellipse 7" cx="16.383" cy="15.207" rx="16.383" ry="15.207" transform="translate(180.706 19.202)" opacity="0.1"/>
    <path id="Path_83" data-name="Path 83" d="M599.6,230.149H526v-.167l.609-9.872a140.271,140.271,0,0,1,11.2-9.944l46.212-1.7,2.149-2.1,7.786,3.316c6.114,2.608,5.622,9.985,5.622,9.985S600.415,228.209,599.6,230.149Z" transform="translate(-365.572 -150.886)" opacity="0.1"/>
    <path id="Path_84" data-name="Path 84" d="M599.6,229.149H526v-.167l.609-9.872a140.271,140.271,0,0,1,11.2-9.944l46.212-1.7,2.149-2.1,7.786,3.316c6.114,2.608,5.622,9.985,5.622,9.985S600.415,227.209,599.6,229.149Z" transform="translate(-365.572 -150.226)" fill="#e7c7ca"/>
    <path id="Path_85" data-name="Path 85" d="M585.875,188.157s11.612,13.733,27.078-.283,1.713,31.262,1.713,31.262l-33.375,3.677Z" transform="translate(-400.584 -136.918)" opacity="0.1"/>
    <path id="Path_86" data-name="Path 86" d="M585.875,190.157s11.612,13.733,27.078-.283,1.713,31.262,1.713,31.262l-33.375,3.677Z" transform="translate(-400.584 -138.237)" fill="#e7c7ca"/>
    <path id="Path_87" data-name="Path 87" d="M598.891,201.912l1.229,17.392,1.317,5.787,1,4.426s2.567,34.043,1.834,35.745.367,3.064.521,3.969-.154,3.18-.033,4.2,0,1.474-2.809,1.11-6.726-1-6.726-1-9.9.681-13.324-.453-9.9-1.137-9.9-1.137-9.781.228-12.958-.112-4.893,3.632-6.968,2.5,2.443-12.14,3.91-15.319-1.955-11.234-1.955-11.234l4.4-22.662.979-5.137v-16.15l.242-.078a6.062,6.062,0,0,0,2.325-1.5l1.1,16.252,34.475,1.137V201.35" transform="translate(-381.744 -147.581)" opacity="0.1"/>
    <path id="Path_88" data-name="Path 88" d="M598.891,199.912l1.229,17.392,1.317,5.787,1,4.426s2.567,34.043,1.834,35.745.367,3.064.521,3.969-.154,3.18-.033,4.2,0,1.474-2.809,1.11-6.726-1-6.726-1-9.9.681-13.324-.453-9.9-1.137-9.9-1.137-9.781.228-12.958-.112-4.893,3.632-6.968,2.5,2.443-12.14,3.91-15.319-1.955-11.234-1.955-11.234l4.4-22.662.979-5.137v-16.15l.242-.078a6.062,6.062,0,0,0,2.325-1.5l1.1,16.252,34.475,1.137V199.35" transform="translate(-381.744 -146.262)" fill="#e7c7ca"/>
    <path id="Path_89" data-name="Path 89" d="M594,63.3a3.674,3.674,0,0,0-1.1-1.927,4.7,4.7,0,0,0-1.936-.735,40.919,40.919,0,0,0-5.091-.906,7.349,7.349,0,0,0-1.1-2.121c-3.594-4.712-8.912-9.154-15.169-10.158-3.275-.528-7.071-.054-9.169,2.342-1.152,1.317-1.647,3.064-2.809,4.357-2.241,2.512-6.286,2.822-9.11,4.766a16.071,16.071,0,0,0-3.668,3.939,13.161,13.161,0,0,0-2.71,5.035c-.734,3.714,1.911,7.255,2.4,11,1.1,8.385-8.582,15.823-6.752,24.1,1.067,4.824,5.868,8.221,10.834,9.944,1.749.609,3.748,1.215,4.566,2.774.367.681.429,1.467.774,2.155,1.159,2.294,4.97,2.383,7.016.711s2.692-4.375,2.934-6.9c.983-11.016-3.77-21.9-3.216-32.943.165-3.34,1.177-7.129,4.4-8.64,4.339-2.043,9.558,1.362,14.333.711a24.629,24.629,0,0,1,1.372,16.106c-.759,2.938-2.072,5.787-2.168,8.817-.143,4.613,2.538,8.827,4.856,12.906a6.561,6.561,0,0,1,.979,2.489,5.623,5.623,0,0,1-.524,2.6c-1.309,3.272-3.569,6.308-3.825,9.791a1.493,1.493,0,0,0,.275,1.164,1.635,1.635,0,0,0,.946.395c3.961.63,7.387-2.628,9.319-5.9a26.2,26.2,0,0,0,3.675-11.752c.4-6.931-2.278-13.75-2.113-20.688C592.406,78.851,596.246,70.909,594,63.3Z" transform="translate(-372.886 -45.947)" opacity="0.1"/>
    <path id="Path_90" data-name="Path 90" d="M595,62.3a3.674,3.674,0,0,0-1.1-1.927,4.7,4.7,0,0,0-1.936-.735,40.909,40.909,0,0,0-5.091-.906,7.345,7.345,0,0,0-1.1-2.121c-3.594-4.712-8.912-9.154-15.169-10.158-3.275-.528-7.071-.054-9.169,2.342-1.152,1.317-1.647,3.064-2.809,4.357-2.241,2.512-6.286,2.822-9.11,4.766a16.073,16.073,0,0,0-3.668,3.939,13.162,13.162,0,0,0-2.71,5.035c-.734,3.714,1.911,7.255,2.4,11,1.1,8.385-8.582,15.823-6.752,24.1,1.067,4.824,5.868,8.221,10.834,9.944,1.75.609,3.748,1.215,4.566,2.775.367.681.429,1.467.774,2.155,1.159,2.294,4.97,2.383,7.016.712s2.692-4.375,2.934-6.9c.983-11.016-3.77-21.9-3.217-32.943.165-3.34,1.177-7.129,4.4-8.64,4.339-2.043,9.558,1.362,14.333.711a24.628,24.628,0,0,1,1.372,16.106c-.759,2.938-2.072,5.787-2.168,8.817-.143,4.613,2.538,8.827,4.856,12.906a6.563,6.563,0,0,1,.979,2.489,5.623,5.623,0,0,1-.524,2.6c-1.309,3.271-3.569,6.308-3.825,9.791a1.494,1.494,0,0,0,.275,1.164,1.636,1.636,0,0,0,.946.395c3.961.63,7.387-2.628,9.319-5.9a26.2,26.2,0,0,0,3.675-11.752c.4-6.931-2.278-13.75-2.113-20.688C593.406,77.851,597.246,69.909,595,62.3Z" transform="translate(-373.52 -45.288)" fill="#3e373a"/>
    <path id="Path_91" data-name="Path 91" d="M581.79,474.163l14.549.432-2.087-10.015-11.146.984Z" transform="translate(-368.413 -306.419)" fill="#c3c7d9"/>
    <path id="Path_92" data-name="Path 92" d="M676.565,425.536c-.979,1.134-4.768,3.176-5.135,3.857s-4.889,2.723-7.214,3.064-9.657,1.818-11,2.611c-.965.572-8.707,2.383-13.794,3.387a41.933,41.933,0,0,1-4.177.7c-2.2.112-26.282-7.489-26.282-7.489l4.643-4.426.257-.082c1.313-.412,7.379-2.315,10.746-3.22,3.792-1.021,8.193-5.219,8.193-5.219s6.477-2.043,7.335-2.271-2.2-7.942-2.2-7.942,14.058-1.811,19.559-3.346,18.217-.967,20.539,5.049S677.559,424.4,676.565,425.536Z" transform="translate(-418.106 -281.53)" fill="#4b4b5b"/>
    <path id="Path_93" data-name="Path 93" d="M565.01,499.447s-2.809,2.723-5.622,2.5-12.65.681-12.65.681a20.137,20.137,0,0,0-4.955,2.666c-2.3,1.682-3.521.34-3.748.054l-.04-.054c-1.225,3.578-4.034.851-4.034.851s1.221-10.894.847-12.255,2.417-3.7,2.417-3.7l3.3-.78,8.362-1.988,11.982,3.857Z" transform="translate(-370.613 -336.265)" fill="#e7c7ca"/>
    <path id="Path_94" data-name="Path 94" d="M540.51,493.26,538.035,509.2l-.04-.055c-1.225,3.578-4.034.851-4.034.851s1.221-10.894.847-12.255,2.417-3.7,2.417-3.7Z" transform="translate(-370.613 -340.117)" opacity="0.1"/>
    <path id="Path_95" data-name="Path 95" d="M599,360.08s6.477,2.043,12.1,0" transform="translate(-411.799 -252.275)" opacity="0.1"/>
    <path id="Path_96" data-name="Path 96" d="M659.29,371.42s2.688,1.246,4.768,0" transform="translate(-449.977 -259.754)" opacity="0.1"/>
    <path id="Path_97" data-name="Path 97" d="M659.29,378.992s4.522.562,5.38-.572" transform="translate(-449.977 -264.371)" opacity="0.1"/>
    <path id="Path_98" data-name="Path 98" d="M655.29,394.133s8.494-1.021,10.6-2.383" transform="translate(-447.444 -273.164)" opacity="0.1"/>
    <path id="Path_99" data-name="Path 99" d="M584.62,391.75s4.768,2.5,8.314,2.383" transform="translate(-402.693 -273.164)" opacity="0.1"/>
    <path id="Path_100" data-name="Path 100" d="M639.409,482.479a41.914,41.914,0,0,1-4.178.7c-2.2.112-26.282-7.489-26.282-7.489l4.643-4.426.257-.082c.734.48,1.335.892,1.764,1.205,2.021,1.478,3.972-.453,4.705-.453s7.09,4.878,7.09,4.878,5.868,1.249,6.847,2.383,4.4.909,5.01,1.7A2.834,2.834,0,0,1,639.409,482.479Z" transform="translate(-418.1 -325.553)" opacity="0.1"/>
    <path id="Path_101" data-name="Path 101" d="M506.685,409.944s-5.934.317-9.356-1.021-14.791-4.426-18.092-2.257-11.248,4.085-7.581,12.712,5.38,8.851,5.38,8.851a12.757,12.757,0,0,1,2.934,2.826c1.1,1.59,11.37,5.219,13.937,5.219s7.089,0,13.445,4.085a29,29,0,0,0,12.1,4.541s8.069,3.064,10.581,3.745,13.992,3.629,16.684,2.723,4.4-6.584,4.4-6.584,1.221-5.106.609-5.9-4.034-.569-5.01-1.7-6.848-2.383-6.848-2.383-6.341-4.882-7.075-4.882-2.685,1.927-4.706.453a108.774,108.774,0,0,0-12.657-7.49C510.793,420.61,506.685,409.944,506.685,409.944Z" transform="translate(-330.56 -282.507)" fill="#4b4b5b"/>
    <path id="Path_102" data-name="Path 102" d="M536.27,427.165a7.4,7.4,0,0,1,6.011,1.474c2.934,2.271,12.807,6.829,12.807,6.829" transform="translate(-372.076 -296.435)" opacity="0.1"/>
    <path id="Path_103" data-name="Path 103" d="M709.485,427s-13.082,1.838-15.525,4.334" transform="translate(-471.931 -296.414)" opacity="0.1"/>
    <path id="Path_104" data-name="Path 104" d="M719.241,504.441h-.576c-2.068-.068-9.077-.272-10.427,0-1.588.34-22.618,0-22.618,0l4.111-.793s-1.526-4.964-.557-5.375c0,0-5.5-3.363-1.353-5.634a13.764,13.764,0,0,1,8.619-1.314l10.412-3.275,2-.63s11.736.569,14.912,8.058S719.241,504.441,719.241,504.441Z" transform="translate(-466.65 -336.265)" fill="#e7c7ca"/>
    <path id="Path_105" data-name="Path 105" d="M755.9,504.474h-.576c3.414-2.615,11.138-10.574-11.813-16.375l2-.63s11.736.569,14.912,8.058S755.9,504.474,755.9,504.474Z" transform="translate(-503.308 -336.298)" opacity="0.1"/>
    <ellipse id="Ellipse_8" data-name="Ellipse 8" cx="0.642" cy="0.596" rx="0.642" ry="0.596" transform="translate(230.372 158.161)" fill="#4b4b5b"/>
    <ellipse id="Ellipse_9" data-name="Ellipse 9" cx="0.642" cy="0.596" rx="0.642" ry="0.596" transform="translate(226.643 159.145)" fill="#4b4b5b"/>
    <g id="Group_1" data-name="Group 1" transform="translate(165.131 21.415)" opacity="0.1">
      <path id="Path_106" data-name="Path 106" d="M622.686,118.975a24.743,24.743,0,0,0-2.105-10.941c-4.768.66-9.991-2.754-14.333-.711-3.213,1.511-4.221,5.3-4.4,8.64-.044.882-.051,1.763-.033,2.645a9,9,0,0,1,.033-.943c.169-3.34,1.177-7.129,4.4-8.64,4.342-2.043,9.558,1.362,14.333.711A24.734,24.734,0,0,1,622.686,118.975Z" transform="translate(-578.705 -106.542)"/>
      <path id="Path_107" data-name="Path 107" d="M553.569,119.676a10.537,10.537,0,0,0-.048-2.226c-.389-3-2.153-5.859-2.472-8.78-.411,3.523,2.006,6.907,2.472,10.482A1.982,1.982,0,0,1,553.569,119.676Z" transform="translate(-546.535 -107.867)"/>
      <path id="Path_108" data-name="Path 108" d="M565.181,211.342c-.227,2.526-.869,5.226-2.934,6.9s-5.868,1.583-7.016-.711c-.367-.681-.422-1.474-.778-2.155-.814-1.559-2.817-2.165-4.566-2.775-4.97-1.726-9.763-5.106-10.831-9.944a9.729,9.729,0,0,1-.194-1.328,9.98,9.98,0,0,0,.194,3.03c1.067,4.824,5.868,8.218,10.831,9.944,1.749.609,3.752,1.215,4.566,2.774.367.681.429,1.467.778,2.155,1.155,2.294,4.966,2.383,7.016.711s2.688-4.375,2.934-6.9a36.094,36.094,0,0,0,.114-4C565.294,209.82,565.247,210.583,565.181,211.342Z" transform="translate(-538.823 -168.983)"/>
      <path id="Path_109" data-name="Path 109" d="M687.93,123.733v1.474c.205-6.332,2.707-12.7,2.461-18.9C690.2,112.043,688.069,117.905,687.93,123.733Z" transform="translate(-633.243 -106.31)"/>
      <path id="Path_110" data-name="Path 110" d="M656.537,202.792a4.081,4.081,0,0,0,.084-1.229,6.505,6.505,0,0,0-.979-2.489c-2.12-3.745-4.537-7.578-4.823-11.735,0,.177-.026.34-.029.531-.147,4.609,2.534,8.827,4.852,12.906A7.856,7.856,0,0,1,656.537,202.792Z" transform="translate(-609.721 -159.755)"/>
      <path id="Path_111" data-name="Path 111" d="M669.042,216.941a26.243,26.243,0,0,1-3.7,11.752c-1.936,3.271-5.358,6.529-9.323,5.9a1.615,1.615,0,0,1-.946-.4.84.84,0,0,1-.172-.266c-.044.266-.081.534-.1.807a1.48,1.48,0,0,0,.275,1.161,1.615,1.615,0,0,0,.946.4c3.965.63,7.387-2.628,9.323-5.9a26.243,26.243,0,0,0,3.7-11.752c.044-.8.048-1.59.022-2.383C669.056,216.488,669.056,216.713,669.042,216.941Z" transform="translate(-612.247 -178.83)"/>
    </g>
    <path id="Path_112" data-name="Path 112" d="M695.31,510.8s9.283,3.615,15.4-4.385" transform="translate(-472.786 -348.797)" fill="none" stroke="#000" stroke-miterlimit="10" stroke-width="1" opacity="0.1"/>
    <path id="Path_113" data-name="Path 113" d="M700.29,533.833a19.306,19.306,0,0,1,17.238-.15" transform="translate(-475.94 -365.506)" fill="none" stroke="#000" stroke-miterlimit="10" stroke-width="1" opacity="0.1"/>
    <path id="Path_114" data-name="Path 114" d="M561.93,528.041s3.183-6.666,11.685-1.583" transform="translate(-388.325 -360.753)" fill="none" stroke="#000" stroke-miterlimit="10" stroke-width="1" opacity="0.1"/>
    <path id="Path_115" data-name="Path 115" d="M533.79,232.346l6.492-5.447s25.171-1.532,26.212,6.41c0,0,8.923-9.416,27.69-7.319l7.94,5.869-21.947,8.94-21.327,6.866-15.708-6.526Z" transform="translate(-370.505 -163.632)" opacity="0.1"/>
    <path id="Path_116" data-name="Path 116" d="M533.79,233.346l6.492-5.447s25.171-1.532,26.212,6.41c0,0,8.923-9.416,27.69-7.319l7.94,5.869-21.947,8.94-21.327,6.866-15.708-6.526Z" transform="translate(-370.505 -164.292)" fill="#d5d6db"/>
    <path id="Path_117" data-name="Path 117" d="M437.38,204.83l2.872,31.888,30.441,1.42-1.32-31.752-.026-.534Z" transform="translate(-276.967 -135.095)" opacity="0.1"/>
    <path id="Path_118" data-name="Path 118" d="M437.38,202.83l2.872,31.888,30.441,1.42-1.32-31.752-.026-.534Z" transform="translate(-276.967 -133.776)" fill="#6c63ff"/>
    <path id="Path_119" data-name="Path 119" d="M581.112,202.83l-31.4,4.371v32.031l30.687-4.116Z" transform="translate(-348.099 -133.776)" opacity="0.1"/>
    <path id="Path_120" data-name="Path 120" d="M581.112,200.83l-31.4,4.371v32.031l30.687-4.116Z" transform="translate(-348.099 -132.457)" fill="#6c63ff"/>
    <path id="Path_121" data-name="Path 121" d="M585.853,223.79l-16.963,1.75.37,5.365,16.581-1.682Z" transform="translate(-360.244 -147.601)" fill="#fff" opacity="0.3"/>
    <path id="Path_122" data-name="Path 122" d="M537.017,335.058l1.727,4.313s2.567,2.043,5.377,1.021,5.259-1.529,6.481-2.523,2.934-5.988,2.934-5.988,1.713-5.447,3.422-6.809,6.235-20.123,0-18.288-11,18.856-11,18.856A4.419,4.419,0,0,1,543.267,327c-1.588.116-4.768-.228-5.38,1.021S535.184,332.563,537.017,335.058Z" transform="translate(-372.082 -217.04)" fill="#be6f72"/>
    <path id="Path_123" data-name="Path 123" d="M622.389,254.951a11.167,11.167,0,0,1-9.209-2.131l1.324,31.748a9.72,9.72,0,0,0,7.885,2.417Z" transform="translate(-420.778 -181.529)" opacity="0.1"/>
    <path id="Path_124" data-name="Path 124" d="M622.389,252.951a11.167,11.167,0,0,1-9.209-2.131l1.324,31.748a9.72,9.72,0,0,0,7.885,2.417Z" transform="translate(-420.778 -180.21)" fill="#6c63ff"/>
    <path id="Path_125" data-name="Path 125" d="M622.389,252.951a11.167,11.167,0,0,1-9.209-2.131l1.324,31.748a9.72,9.72,0,0,0,7.885,2.417Z" transform="translate(-420.778 -180.21)" opacity="0.1"/>
    <path id="Path_126" data-name="Path 126" d="M640.29,240.439s12.774-3.626,16.1-3.115" transform="translate(-437.945 -171.276)" opacity="0.1"/>
    <path id="Path_127" data-name="Path 127" d="M576.38,237.873S564,235.15,561.93,235.922" transform="translate(-388.325 -170.293)" opacity="0.1"/>
    <path id="Path_128" data-name="Path 128" d="M662.25,244.223s8.542-2.907,11.63-1.525" transform="translate(-451.851 -174.607)" opacity="0.1"/>
    <path id="Path_129" data-name="Path 129" d="M650.52,450.574a28.505,28.505,0,0,1,4.21-2.427,69.807,69.807,0,0,0,6.235-3.537" transform="translate(-444.423 -308.029)" opacity="0.1"/>
    <path id="Path_130" data-name="Path 130" d="M545.4,360.08s-5.358,4.068-6.968,4.426-2.6,3.53-2.6,3.53" transform="translate(-371.797 -252.275)" opacity="0.1"/>
    <path id="Path_131" data-name="Path 131" d="M675.4,333.3l-1.709,4.324s-2.567,2.043-5.38,1.021-5.256-1.529-6.481-2.523-2.934-5.988-2.934-5.988-1.709-5.447-3.422-6.809-6.235-20.123,0-18.288,11,18.856,11,18.856a4.419,4.419,0,0,0,2.688,1.362c1.588.116,4.768-.228,5.38,1.021S677.238,330.813,675.4,333.3Z" transform="translate(-445.542 -215.886)" fill="#be6f72"/>
    <path id="Path_132" data-name="Path 132" d="M707.15,364.94s3.5,2.09,3.488,4.589" transform="translate(-480.284 -255.48)" opacity="0.1"/>
    <ellipse id="Ellipse_10" data-name="Ellipse 10" cx="16.383" cy="15.207" rx="16.383" ry="15.207" transform="translate(180.765 18.456)" fill="#be6f72"/>
    <path id="Path_133" data-name="Path 133" d="M584.063,99.238c1.988-.289,3.73-1.362,5.63-1.978,4.251-1.386,8.953-.436,13.255.814a18.332,18.332,0,0,0,5.058,1.021,5.259,5.259,0,0,0,4.452-2.043,4.326,4.326,0,0,0-.029-4.266,12.237,12.237,0,0,0-2.993-3.428c-3.814-3.343-8.546-6.468-13.779-6.128a20.092,20.092,0,0,0-6.055,1.61,68.912,68.912,0,0,0-7.108,3.323c-1.764.95-5.032,2.22-6.048,3.956C574.135,96.031,580.469,99.762,584.063,99.238Z" transform="translate(-397.203 -69.656)" fill="#3e373a"/>
    <path id="Path_134" data-name="Path 134" d="M612.455,114.456A5.259,5.259,0,0,1,608,116.5a18.355,18.355,0,0,1-5.061-1c-4.3-1.249-9-2.2-13.255-.814-1.9.616-3.642,1.7-5.63,1.974-2.9.422-7.563-1.92-8.069-4.9-.568,3.442,4.841,6.39,8.069,5.92,1.988-.289,3.734-1.362,5.63-1.974,4.254-1.389,8.953-.436,13.255.814a17.61,17.61,0,0,0,5.061,1,5.3,5.3,0,0,0,4.452-2.043,3.746,3.746,0,0,0,.513-2.489,3.491,3.491,0,0,1-.513,1.467Z" transform="translate(-397.201 -88.49)" opacity="0.1"/>
    <path id="Path_135" data-name="Path 135" d="M1027.667,661.63s2.175,2.638-1.005,6.625-5.8,7.35-4.742,9.835c0,0,4.8-7.4,8.7-7.506S1031.954,666.079,1027.667,661.63Z" transform="translate(-679.458 -451.169)" fill="#6c63ff"/>
    <path id="Path_136" data-name="Path 136" d="M1027.881,661.63a3.179,3.179,0,0,1,.444.827c3.807,4.153,5.839,8.031,2.175,8.126-3.411.092-7.5,5.753-8.48,7.18a3.184,3.184,0,0,0,.114.341s4.8-7.4,8.7-7.507S1032.168,666.079,1027.881,661.63Z" transform="translate(-679.672 -451.169)" opacity="0.1"/>
    <path id="Path_137" data-name="Path 137" d="M1048.132,670.359c0,.929-.114,1.682-.249,1.682s-.253-.752-.253-1.682.139-.49.279-.49S1048.132,669.43,1048.132,670.359Z" transform="translate(-695.89 -456.535)" fill="#ffd037"/>
    <path id="Path_138" data-name="Path 138" d="M1049.831,673.5c-.876.443-1.643.711-1.709.6s.59-.565,1.467-1.021.531-.123.6,0S1050.711,673.055,1049.831,673.5Z" transform="translate(-696.198 -458.567)" fill="#ffd037"/>
    <path id="Path_139" data-name="Path 139" d="M998.238,661.63s-2.175,2.638,1,6.625,5.8,7.35,4.739,9.835c0,0-4.794-7.4-8.7-7.506S993.961,666.079,998.238,661.63Z" transform="translate(-661.524 -451.169)" fill="#6c63ff"/>
    <path id="Path_140" data-name="Path 140" d="M998.238,661.63a3.183,3.183,0,0,0-.444.827c-3.807,4.153-5.839,8.031-2.175,8.126,3.407.092,7.5,5.753,8.479,7.18a2.536,2.536,0,0,1-.117.341s-4.794-7.4-8.7-7.507S993.961,666.079,998.238,661.63Z" transform="translate(-661.524 -451.169)" opacity="0.1"/>
    <path id="Path_141" data-name="Path 141" d="M995.64,670.359c0,.929.11,1.682.249,1.682s.253-.752.253-1.682-.143-.49-.279-.49S995.64,669.43,995.64,670.359Z" transform="translate(-662.967 -456.535)" fill="#ffd037"/>
    <path id="Path_142" data-name="Path 142" d="M990.939,673.5c.876.443,1.643.711,1.709.6s-.59-.565-1.467-1.021-.532-.123-.6,0S990.059,673.055,990.939,673.5Z" transform="translate(-659.652 -458.567)" fill="#ffd037"/>
    <ellipse id="Ellipse_11" data-name="Ellipse 11" cx="22.739" cy="3.237" rx="22.739" ry="3.237" transform="translate(319.722 240.64)" fill="#6c63ff" opacity="0.1"/>
    <path id="Path_143" data-name="Path 143" d="M1013.813,697.142l-.11.824-.154,1.164-.062.487-.154,1.164-.066.487-.15,1.161-1.742,13.242c-.154,1.181-2.234,2.1-4.746,2.1h-9.041c-2.512,0-4.588-.923-4.746-2.1L991.1,702.429l-.154-1.161-.062-.487-.154-1.164-.066-.487-.15-1.164-.11-.824c-.084-.681,1.038-1.232,2.461-1.232h18.492C1012.774,695.91,1013.9,696.472,1013.813,697.142Z" transform="translate(-659.648 -473.779)" fill="#65617d"/>
    <path id="Path_144" data-name="Path 144" d="M925.32,658.53l-.15,1.164H902.284l-.154-1.164Z" transform="translate(-571.266 -434.343)" fill="#9d9cb5"/>
    <path id="Path_145" data-name="Path 145" d="M925.477,663.38l-.15,1.164H902.874l-.154-1.164Z" transform="translate(-571.639 -437.542)" fill="#9d9cb5"/>
    <path id="Path_146" data-name="Path 146" d="M925.641,668.23l-.154,1.164H903.47l-.15-1.164Z" transform="translate(-572.019 -440.74)" fill="#9d9cb5"/>
  </g>
</svg>
