<svg xmlns="http://www.w3.org/2000/svg" width="39.43" height="41.225" viewBox="0 0 39.43 41.225">
  <g id="Book" transform="translate(-900 -383)">
    <g id="Слой_1" data-name="Слой 1" transform="translate(900 383)">
      <path id="Path_150" data-name="Path 150" d="M38.344,237.987,21.807,228.44.552,240.711l-.552.34,16.939,9.779,21.825-12.6v-.484Z" transform="translate(0 -209.605)" fill="#d6d8e5" opacity="0.4"/>
      <path id="Path_151" data-name="Path 151" d="M46.223,233.278,29.686,223.73,8.28,236.089l-.42-.242v.485l16.957,9.79,21.826-12.6v-.485Z" transform="translate(-7.212 -205.283)" fill="#252935"/>
      <path id="Path_152" data-name="Path 152" d="M24.817,240.241,7.86,230.451l21.826-12.6,16.957,9.79Z" transform="translate(-7.212 -199.888)" fill="#2b303f"/>
      <path id="Path_153" data-name="Path 153" d="M13,331.55c.052-.012.5-.289.5-.289v-3.2l-.5-.289Z" transform="translate(-11.928 -300.745)" fill="#3a4151"/>
      <path id="Path_154" data-name="Path 154" d="M34.553,327.151,18.46,317.883v-4.521l.258-.212,15.835,9.057Z" transform="translate(-16.938 -287.331)" fill="#e6e9ef"/>
      <path id="Path_155" data-name="Path 155" d="M234.554,284.36,213.64,296.441V291.5L234.1,279.68l.456.282Z" transform="translate(-196.025 -256.62)" fill="#f4f6f9"/>
      <path id="Path_156" data-name="Path 156" d="M46.223,181.548,29.686,172,8.28,184.359l-.42-.242v.485l16.957,9.79,21.826-12.6v-.484Z" transform="translate(-7.212 -157.818)" fill="#252935"/>
      <path id="Path_157" data-name="Path 157" d="M24.817,188.52,7.86,178.73l21.826-12.6,16.957,9.79Z" transform="translate(-7.212 -152.433)" fill="#2b303f"/>
      <path id="Path_158" data-name="Path 158" d="M7.86,323.215V318.95l.42.242v4.733Z" transform="translate(-7.212 -292.652)" fill="#252935"/>
      <path id="Path_159" data-name="Path 159" d="M52.335,177.448,36.664,168.4,16.378,180.111l-.4-.229v.459l16.07,9.277,20.684-11.941v-.459Z" transform="translate(-14.662 -154.515)" fill="#e8a30a"/>
      <path id="Path_160" data-name="Path 160" d="M32.05,184.049l-16.07-9.277L36.664,162.83l16.07,9.277Z" transform="translate(-14.662 -149.405)" fill="#f9cb07"/>
      <path id="Path_161" data-name="Path 161" d="M20.81,270.582c.049-.011.473-.273.473-.273v-3.036L20.81,267Z" transform="translate(-19.094 -244.986)" fill="#f9cb07"/>
      <path id="Path_162" data-name="Path 162" d="M41.28,266.408l-15.25-8.783v-4.283l.244-.2,15.006,8.583Z" transform="translate(-23.884 -232.268)" fill="#e6e9ef"/>
      <path id="Path_163" data-name="Path 163" d="M230.81,225.855,210.99,237.3v-4.685l19.388-11.2.432.267Z" transform="translate(-193.594 -203.164)" fill="#f4f6f9"/>
      <path id="Path_164" data-name="Path 164" d="M52.335,128.428,36.664,119.38,16.378,131.091l-.4-.229v.459L32.05,140.6l20.684-11.941V128.2Z" transform="translate(-14.662 -109.537)" fill="#e8a30a"/>
      <path id="Path_165" data-name="Path 165" d="M32.05,135.029l-16.07-9.277L36.664,113.81l16.07,9.277Z" transform="translate(-14.662 -104.426)" fill="#f9cb07"/>
      <path id="Path_166" data-name="Path 166" d="M15.98,262.682V258.64l.4.229v4.485Z" transform="translate(-14.662 -237.315)" fill="#e8a30a"/>
      <path id="Path_167" data-name="Path 167" d="M60.662,120.024,45.69,111.38,26.31,122.569l-.38-.219v.439l15.352,8.863,19.76-11.409V119.8Z" transform="translate(-23.792 -102.197)" fill="#ab210d"/>
      <path id="Path_168" data-name="Path 168" d="M41.282,126.332,25.93,117.469,45.69,106.06l15.352,8.863Z" transform="translate(-23.792 -97.315)" fill="#ff582b"/>
      <path id="Path_169" data-name="Path 169" d="M30.54,209c.047-.012.453-.261.453-.261v-2.9l-.453-.261Z" transform="translate(-28.022 -188.63)" fill="#ff582b"/>
      <path id="Path_170" data-name="Path 170" d="M50.1,205.015l-14.57-8.39v-4.093l.233-.192,14.337,8.2Z" transform="translate(-32.601 -176.481)" fill="#e6e9ef"/>
      <path id="Path_171" data-name="Path 171" d="M231.175,166.268,212.24,177.2v-4.475l18.523-10.7.412.256Z" transform="translate(-194.741 -148.671)" fill="#f4f6f9"/>
      <path id="Path_172" data-name="Path 172" d="M60.662,73.194,45.69,64.55,26.31,75.739l-.38-.219v.439l15.352,8.864,19.76-11.409v-.439Z" transform="translate(-23.792 -59.228)" fill="#ab210d"/>
      <path id="Path_173" data-name="Path 173" d="M41.282,79.5,25.93,70.638,45.69,59.23l15.352,8.863Z" transform="translate(-23.792 -54.346)" fill="#ff582b"/>
      <path id="Path_174" data-name="Path 174" d="M25.93,201.452V197.59l.38.219v4.285Z" transform="translate(-23.792 -181.299)" fill="#ab210d"/>
      <path id="Path_175" data-name="Path 175" d="M49.527,64.011l-15.763-9.1-20.4,11.78-.4-.231v.463l16.164,9.332,20.8-12.011V63.78Z" transform="translate(-11.891 -50.383)" fill="#5075cb"/>
      <path id="Path_176" data-name="Path 176" d="M29.124,70.652,12.96,61.321l20.8-12.011,16.164,9.332Z" transform="translate(-11.891 -45.244)" fill="#5788f9"/>
      <path id="Path_177" data-name="Path 177" d="M17.82,157.711c.049-.011.476-.275.476-.275v-3.051l-.476-.275Z" transform="translate(-16.351 -141.404)" fill="#335fc4"/>
      <path id="Path_178" data-name="Path 178" d="M38.409,153.485,23.07,144.652v-4.31l.246-.2,15.093,8.633Z" transform="translate(-21.168 -128.585)" fill="#e6e9ef"/>
      <path id="Path_179" data-name="Path 179" d="M229.046,112.7,209.11,124.216V119.5l19.5-11.264.435.269Z" transform="translate(-191.869 -99.316)" fill="#f4f6f9"/>
      <path id="Path_180" data-name="Path 180" d="M49.527,14.7,33.764,5.6l-20.4,11.781-.4-.231v.462l16.164,9.332,20.8-12.011V14.47Z" transform="translate(-11.891 -5.138)" fill="#255ee4"/>
      <path id="Path_181" data-name="Path 181" d="M29.124,21.343,12.96,12.011,33.764,0,49.928,9.332Z" transform="translate(-11.891)" fill="#3a6ee8"/>
      <path id="Path_182" data-name="Path 182" d="M12.96,149.745V145.68l.4.231v4.511Z" transform="translate(-11.891 -133.669)" fill="#3a6ee8"/>
      <path id="Path_183" data-name="Path 183" d="M208.469,57.317,195.44,49.8l1.343-.775,13.029,7.522Z" transform="translate(-179.326 -44.978)" opacity="0.1"/>
      <path id="Path_184" data-name="Path 184" d="M204.733,88.909,196,83.868l.672-.388,8.733,5.042Z" transform="translate(-179.84 -76.597)" opacity="0.1"/>
      <path id="Path_185" data-name="Path 185" d="M186.933,100.6,178.2,95.558l.671-.388,8.733,5.042Z" transform="translate(-163.507 -87.323)" opacity="0.1"/>
      <path id="Path_186" data-name="Path 186" d="M182.316,118.074l-5.866-3.386.672-.388,5.865,3.386Z" transform="translate(-161.902 -104.876)" opacity="0.1"/>
    </g>
  </g>
</svg>
