<svg xmlns="http://www.w3.org/2000/svg" width="225" height="183" viewBox="0 0 225 183">
  <g id="empty-list" transform="translate(-75 -1249)">
    <text id="Your_list_is_empty..._Add_a_book_" data-name="Your list is empty...
Add a book!" transform="translate(75 1359)" fill="#c2c2c2" font-size="19" font-family="Montserrat-Light, Montserrat" font-weight="300"><tspan x="27.247" y="18">Your list is empty...</tspan><tspan x="56.431" y="61">Add a book!</tspan></text>
    <g id="open-book" transform="translate(141.998 1249)">
      <g id="Group_5" data-name="Group 5" transform="translate(0.002 0)">
        <g id="Group_4" data-name="Group 4" transform="translate(0)">
          <path id="Path_334" data-name="Path 334" d="M290.287,204.177a1.452,1.452,0,0,0,1.952.634c.085-.044,8.622-4.38,12.832-5.71a1.451,1.451,0,0,0-.876-2.767c-4.435,1.4-12.914,5.71-13.273,5.893A1.451,1.451,0,0,0,290.287,204.177Z" transform="translate(-240.82 -162.909)" fill="#d9d9d9"/>
          <path id="Path_335" data-name="Path 335" d="M291.583,102.57a1.447,1.447,0,0,0,.657-.158c.086-.044,8.622-4.38,12.832-5.71a1.451,1.451,0,0,0-.876-2.767c-4.435,1.4-12.914,5.71-13.273,5.893a1.45,1.45,0,0,0,.66,2.742Z" transform="translate(-240.821 -77.914)" fill="#d9d9d9"/>
          <path id="Path_336" data-name="Path 336" d="M85.57,21.755a1.45,1.45,0,0,0-1.45,1.45V79.767a4.356,4.356,0,0,1-4.351,4.351H44.962V80.781a42.739,42.739,0,0,1,13.053-2.464,74.807,74.807,0,0,1,21.3,2.827,1.45,1.45,0,0,0,1.907-1.376V15.954a1.448,1.448,0,0,0-1.136-1.416s-1.137-.254-3.08-.611a1.45,1.45,0,0,0-.525,2.853c.741.136,1.362.257,1.84.352V77.84a81.906,81.906,0,0,0-20.3-2.423A45.563,45.563,0,0,0,43.568,78.2a33.976,33.976,0,0,0-13.109-2.779A97.733,97.733,0,0,0,8.7,77.9V17.076A95.463,95.463,0,0,1,30.458,14.5a31.445,31.445,0,0,1,11.6,2.39V73.966a1.45,1.45,0,0,0,2.2,1.243c.144-.085,14.513-8.669,27.267-12.919a1.45,1.45,0,0,0,.992-1.376V1.451A1.452,1.452,0,0,0,70.556.092,154.279,154.279,0,0,0,47.093,11.824a1.45,1.45,0,1,0,1.537,2.46A155.012,155.012,0,0,1,69.617,3.571v56.3A162.53,162.53,0,0,0,44.961,71.447V15.954a1.452,1.452,0,0,0-.8-1.3,33.583,33.583,0,0,0-13.7-3.053,94.129,94.129,0,0,0-23.6,2.957A1.449,1.449,0,0,0,5.8,15.954V79.768a1.45,1.45,0,0,0,1.45,1.45,1.429,1.429,0,0,0,.4-.057,93.163,93.163,0,0,1,22.807-2.844,31.375,31.375,0,0,1,11.6,2.391v3.41H7.253A4.356,4.356,0,0,1,2.9,79.768V23.206a1.45,1.45,0,0,0-2.9,0V79.768a7.26,7.26,0,0,0,7.252,7.252H79.769a7.26,7.26,0,0,0,7.252-7.252V23.206A1.45,1.45,0,0,0,85.57,21.755Z" transform="translate(-0.002 0)" fill="#d9d9d9"/>
          <path id="Path_337" data-name="Path 337" d="M290.287,152.977a1.452,1.452,0,0,0,1.952.634c.085-.044,8.622-4.38,12.832-5.71a1.451,1.451,0,0,0-.876-2.767c-4.435,1.4-12.914,5.71-13.273,5.893A1.451,1.451,0,0,0,290.287,152.977Z" transform="translate(-240.82 -120.411)" fill="#d9d9d9"/>
          <path id="Path_338" data-name="Path 338" d="M290.287,255.377a1.452,1.452,0,0,0,1.952.634c.085-.044,8.622-4.38,12.832-5.71a1.451,1.451,0,0,0-.876-2.767c-4.435,1.4-12.914,5.71-13.273,5.893A1.451,1.451,0,0,0,290.287,255.377Z" transform="translate(-240.82 -205.407)" fill="#d9d9d9"/>
          <path id="Path_339" data-name="Path 339" d="M105.969,154.447c-8.956-2.1-19.132.576-19.56.69a1.45,1.45,0,0,0,.374,2.851,1.475,1.475,0,0,0,.377-.049c.1-.028,9.9-2.6,18.148-.669a1.45,1.45,0,1,0,.661-2.824Z" transform="translate(-70.831 -127.531)" fill="#d9d9d9"/>
          <path id="Path_340" data-name="Path 340" d="M105.969,205.65c-8.956-2.1-19.132.576-19.56.69a1.45,1.45,0,0,0,.374,2.851,1.474,1.474,0,0,0,.377-.049c.1-.028,9.9-2.6,18.148-.669a1.45,1.45,0,1,0,.661-2.824Z" transform="translate(-70.831 -170.033)" fill="#d9d9d9"/>
          <path id="Path_341" data-name="Path 341" d="M290.287,306.577a1.452,1.452,0,0,0,1.952.634c.085-.044,8.622-4.38,12.832-5.71a1.451,1.451,0,0,0-.876-2.767c-4.435,1.4-12.914,5.71-13.273,5.893A1.451,1.451,0,0,0,290.287,306.577Z" transform="translate(-240.82 -247.906)" fill="#d9d9d9"/>
          <path id="Path_342" data-name="Path 342" d="M105.969,256.849c-8.956-2.1-19.132.574-19.56.69a1.451,1.451,0,0,0,.374,2.853,1.47,1.47,0,0,0,.377-.051c.1-.028,9.9-2.6,18.148-.669a1.45,1.45,0,1,0,.661-2.824Z" transform="translate(-70.831 -212.53)" fill="#d9d9d9"/>
          <path id="Path_343" data-name="Path 343" d="M105.969,359.247c-8.956-2.1-19.132.576-19.56.69a1.451,1.451,0,0,0,.374,2.853,1.47,1.47,0,0,0,.377-.051c.1-.027,9.9-2.6,18.148-.669a1.45,1.45,0,1,0,.661-2.824Z" transform="translate(-70.831 -297.524)" fill="#d9d9d9"/>
          <path id="Path_344" data-name="Path 344" d="M105.969,308.046c-8.956-2.1-19.132.574-19.56.69a1.451,1.451,0,0,0,.374,2.853,1.469,1.469,0,0,0,.377-.051c.1-.028,9.9-2.6,18.148-.669a1.45,1.45,0,1,0,.661-2.824Z" transform="translate(-70.831 -255.025)" fill="#d9d9d9"/>
        </g>
      </g>
    </g>
  </g>
</svg>
