<svg xmlns="http://www.w3.org/2000/svg" width="22.427" height="21.494" viewBox="0 0 22.427 21.494">
  <g id="github" transform="translate(-176 -1607.992)">
    <path id="github-image" d="M11.214.5A11.116,11.116,0,0,0,0,11.519,11.038,11.038,0,0,0,7.667,21.974c.561.1.766-.237.766-.53,0-.262-.009-.955-.014-1.874-3.119.664-3.777-1.48-3.777-1.48a2.937,2.937,0,0,0-1.248-1.612c-1.017-.683.079-.669.079-.669a2.346,2.346,0,0,1,1.718,1.136,2.415,2.415,0,0,0,3.266.917,2.333,2.333,0,0,1,.71-1.474c-2.49-.275-5.108-1.223-5.108-5.445A4.21,4.21,0,0,1,5.215,7.987a3.855,3.855,0,0,1,.1-2.917s.939-.3,3.084,1.13A10.751,10.751,0,0,1,14,6.2c2.131-1.425,3.07-1.13,3.07-1.13a3.962,3.962,0,0,1,.112,2.917,4.227,4.227,0,0,1,1.149,2.957c0,4.233-2.621,5.165-5.116,5.436a2.615,2.615,0,0,1,.757,2.039c0,1.474-.014,2.66-.014,3.017,0,.289.2.633.771.523a11,11,0,0,0,7.695-10.441A11.118,11.118,0,0,0,11.214.5Z" transform="translate(176 1607.493)" fill="#fff"/>
  </g>
</svg>
